<?xml version="1.0" standalone="no"?><!DOCTYPE svg PUBLIC "-//W3C//DTD SVG 1.1//EN" "http://www.w3.org/Graphics/SVG/1.1/DTD/svg11.dtd"><svg t="1679994099241" class="icon" viewBox="0 0 1024 1024" version="1.1" xmlns="http://www.w3.org/2000/svg" p-id="1102" width="32" height="32" xmlns:xlink="http://www.w3.org/1999/xlink"><path d="M158.72 71.92064c-3.2 11.20256 12.89216 27.5968 25.6 30.72l97.28 20.48c-145.408 78.848-230.4 229.9392-230.4 397.03552 0 249.86624 206.5664 452.88448 460.8 452.88448s460.8-203.01824 460.8-452.88448a452.77696 452.77696 0 0 0-226.432-389.632c-11.136-6.25152-28.32896-3.75808-34.688 7.95648a28.08832 28.08832 0 0 0 10.24 35.84 400.24064 400.24064 0 0 1 199.68 348.16c0 224.1024-181.59104 399.36-409.6 399.36s-409.6-175.2576-409.6-399.36c0-155.38688 81.13152-295.58784 220.16-363.52l-25.6 128c-3.1744 12.4928 6.8864 24.71424 19.59424 27.83232a23.71072 23.71072 0 0 0 28.60544-17.1776l42.10176-175.68768v-5.46304a22.71744 22.71744 0 0 0-18.26816-22.64576l-178.75456-41.38496C171.27936 46.22336 161.92 60.7232 158.72 71.92064z" p-id="1103" fill="#bfbfbf"></path></svg>