<?xml version="1.0" standalone="no"?><!DOCTYPE svg PUBLIC "-//W3C//DTD SVG 1.1//EN" "http://www.w3.org/Graphics/SVG/1.1/DTD/svg11.dtd"><svg t="1681043305714" class="icon" viewBox="0 0 1024 1024" version="1.1" xmlns="http://www.w3.org/2000/svg" p-id="4023" xmlns:xlink="http://www.w3.org/1999/xlink" width="32" height="32"><path d="M512 113c220 0 399 179 399 399S732 911 512 911 113 732 113 512s179-399 399-399m0-42C268.4 71 71 268.4 71 512s197.4 441 441 441 441-197.4 441-441S755.6 71 512 71z" p-id="4024" fill="#2c2c2c"></path><path d="M440.3 697.6c-29.9 0-54.3-24.3-54.3-54.3V380.6c0-29.9 24.4-54.3 54.3-54.3 9.4 0 18.7 2.5 27 7.3L694.9 465c17 9.8 27.1 27.4 27.1 47s-10.1 37.2-27.1 47L467.4 690.3c-8.4 4.8-17.7 7.3-27.1 7.3z m0-329.2c-5.9 0-12.3 4.7-12.3 12.3v262.7c0 10.3 10.9 14.9 18.4 10.6l227.5-131.4c5.5-3.2 6.1-8.4 6.1-10.6s-0.6-7.4-6.1-10.6L446.4 370c-2-1.1-4-1.6-6.1-1.6z" p-id="4025" fill="#2c2c2c"></path></svg>