<?xml version="1.0" standalone="no"?><!DOCTYPE svg PUBLIC "-//W3C//DTD SVG 1.1//EN" "http://www.w3.org/Graphics/SVG/1.1/DTD/svg11.dtd"><svg t="1679980967408" class="icon" viewBox="0 0 1024 1024" version="1.1" xmlns="http://www.w3.org/2000/svg" p-id="3759" xmlns:xlink="http://www.w3.org/1999/xlink" width="32" height="32"><path d="M659.750065 345.505012l208.611202 0-136.581702 81.603553c-9.486048 5.66707-12.580526 17.950837-6.91448 27.436886 3.747347 6.27082 10.384511 9.749038 17.195637 9.749038 3.491521 0 7.028067-0.914836 10.242272-2.835581l198.816115-118.786407c6.045693-3.611248 9.745968-10.134825 9.745968-17.175171 0-7.040347-3.700275-13.563924-9.745968-17.175171l-198.816115-118.785384c-9.490142-5.669116-21.769816-2.572592-27.437909 6.913457-5.666046 9.486048-2.571568 21.769816 6.91448 27.436886l136.581702 81.602529L659.750065 305.489646c-114.183576 0-207.078289 92.895737-207.078289 207.080336 0 92.119047-74.944899 167.063947-167.063947 167.063947L84.531232 679.633928c-11.04966 0-20.007683 8.958022-20.007683 20.007683s8.958022 20.007683 20.007683 20.007683l201.076598 0c114.184599 0 207.079312-92.894713 207.079312-207.079312C492.687142 420.449911 567.631018 345.505012 659.750065 345.505012z" fill="#272636" p-id="3760"></path><path d="M84.531232 345.505012l201.076598 0c39.496549 0 77.818343 14.034645 107.906615 39.520085 3.76065 3.183506 8.352225 4.739954 12.922311 4.739954 5.678326 0 11.319813-2.403746 15.276938-7.076162 7.141654-8.432043 6.094812-21.056572-2.336208-28.199249-37.306674-31.597649-84.813664-48.999994-133.769656-48.999994L84.531232 305.489646c-11.04966 0-20.007683 8.958022-20.007683 20.007683C64.523549 336.548012 73.481571 345.505012 84.531232 345.505012z" fill="#272636" p-id="3761"></path><path d="M951.119109 682.467463 752.302995 563.677986c-9.490142-5.666046-21.769816-2.571568-27.437909 6.91448-5.666046 9.486048-2.571568 21.769816 6.91448 27.437909l136.581702 81.603553L659.750065 679.633928c-40.956807 0-80.354096-14.966876-110.932532-42.144866-8.256034-7.339152-20.903076-6.596232-28.246321 1.662873-7.340175 8.259104-6.596232 20.906146 1.663896 28.247344 37.910425 33.694403 86.74669 52.250014 137.514957 52.250014l208.610178 0-136.580678 81.601506c-9.486048 5.668093-12.580526 17.951861-6.91448 27.437909 3.747347 6.269797 10.384511 9.750061 17.195637 9.750061 3.491521 0 7.028067-0.914836 10.242272-2.835581l198.816115-118.785384c6.045693-3.612271 9.745968-10.134825 9.745968-17.176195C960.865077 692.600241 957.163779 686.077687 951.119109 682.467463z" fill="#272636" p-id="3762"></path></svg>