<?xml version="1.0" standalone="no"?><!DOCTYPE svg PUBLIC "-//W3C//DTD SVG 1.1//EN" "http://www.w3.org/Graphics/SVG/1.1/DTD/svg11.dtd"><svg t="1680165947238" class="icon" viewBox="0 0 1024 1024" version="1.1" xmlns="http://www.w3.org/2000/svg" p-id="5707" xmlns:xlink="http://www.w3.org/1999/xlink" width="32" height="32"><path d="M137.90231 0C110.10583 0.70144 87.74167 23.10144 87.04023 50.93376V968.3456a48.70656 48.70656 0 0 0 15.27296 35.6352 49.9712 49.9712 0 0 0 35.58912 15.29856h746.33728a48.64 48.64 0 0 0 35.58912-15.29344 50.37056 50.37056 0 0 0 15.27296-35.64032V288.7168L646.72791 0H137.90231z" fill="#6CCBFF" p-id="5708"></path><path d="M935.10167 288.7168h-237.44512c-27.82208-0.6656-50.2272-23.07584-50.92864-50.93376V0l288.37376 288.7168z" fill="#C4EAFF" p-id="5709"></path><path d="M299.05943 390.65088h84.7872v84.91008H299.05943V390.656z m169.57952 0h84.79744v84.91008H468.63383V390.656z m169.65632 0h84.7872v84.91008h-84.7872V390.656zM383.84663 475.56096h84.79232v84.9152h-84.7872V475.56096z m169.58976 0h84.85888v84.9152H553.43639V475.56096zM383.84663 645.38624h84.79232v84.97664h-84.7872v-84.97664z m169.58976 0h84.85888v84.97664H553.43639v-84.97664z m-254.38208-84.91008H383.84663v84.91008H299.05943v-84.91008z m169.58464 0h84.79744v84.91008H468.63383v-84.91008z m169.65632 0h84.7872v84.91008h-84.7872v-84.91008z m-339.24096 169.88672H383.84663v85.0432H299.05943v-85.0432z m169.58464 0h84.79744v85.0432H468.63383v-85.0432z m169.65632 0h84.7872v85.0432h-84.7872v-85.0432z" fill="#FFFFFF" p-id="5710"></path></svg>