<?xml version="1.0" standalone="no"?><!DOCTYPE svg PUBLIC "-//W3C//DTD SVG 1.1//EN" "http://www.w3.org/Graphics/SVG/1.1/DTD/svg11.dtd"><svg t="1680248404701" class="icon" viewBox="0 0 1024 1024" version="1.1" xmlns="http://www.w3.org/2000/svg" p-id="32010" width="32" height="32" xmlns:xlink="http://www.w3.org/1999/xlink"><path d="M942.848 216.576l-192.256-204.8A37.632 37.632 0 0 0 723.2 0h-614.4a39.936 39.936 0 0 0-39.168 41.728v941.056A40.448 40.448 0 0 0 108.544 1024h806.912a40.448 40.448 0 0 0 38.912-41.728V246.016a41.728 41.728 0 0 0-11.52-29.44z" fill="#B9C9D5" p-id="32011"></path><path d="M493.056 236.032a179.2 179.2 0 0 0-179.2 179.2 45.312 45.312 0 1 0 90.368 0 89.856 89.856 0 1 1 179.2 0c0 51.2-130.304 116.736-134.912 227.84v4.608a44.544 44.544 0 0 0 22.528 38.912 44.032 44.032 0 0 0 44.8 0 45.056 45.056 0 0 0 21.76-38.144c-1.28-103.936 134.656-129.536 134.656-232.448a179.2 179.2 0 0 0-179.2-179.968zM493.056 758.016a46.336 46.336 0 1 0 46.08 46.336 46.336 46.336 0 0 0-46.08-46.336z" fill="#FFFFFF" p-id="32012"></path></svg>