<?xml version="1.0" standalone="no"?><!DOCTYPE svg PUBLIC "-//W3C//DTD SVG 1.1//EN" "http://www.w3.org/Graphics/SVG/1.1/DTD/svg11.dtd"><svg t="1680068383136" class="icon" viewBox="0 0 1024 1024" version="1.1" xmlns="http://www.w3.org/2000/svg" p-id="2997" width="32" height="32" xmlns:xlink="http://www.w3.org/1999/xlink"><path d="M137.90231 0C110.10583 0.70144 87.74167 23.10144 87.04023 50.93376V968.3456a48.70656 48.70656 0 0 0 15.27296 35.6352 49.9712 49.9712 0 0 0 35.58912 15.29856h746.33728a48.64 48.64 0 0 0 35.58912-15.29344 50.37056 50.37056 0 0 0 15.27296-35.64032V288.7168L646.72791 0H137.90231z" fill="#6CCBFF" p-id="2998"></path><path d="M935.10167 288.7168h-237.44512c-27.82208-0.6656-50.2272-23.07584-50.92864-50.93376V0l288.37376 288.7168z" fill="#C4EAFF" p-id="2999"></path><path d="M354.16599 542.78656h89.04192v144.3584a17.47456 17.47456 0 0 0 16.9984 17.01888h101.72928a17.47456 17.47456 0 0 0 16.9984-17.01888v-144.3584h89.0368a7.3728 7.3728 0 0 0 7.63904-5.12c1.1776-3.18464 0.512-6.7584-1.72544-9.30816L522.95703 383.86688a19.10784 19.10784 0 0 0-11.88352-5.12 15.39584 15.39584 0 0 0-11.88864 5.12L348.26263 528.22528a7.58784 7.58784 0 0 0-1.72544 9.30816c1.23904 3.1232 4.2752 5.16608 7.63392 5.12v0.13312z m368.9216 220.8256H299.05431a16.99328 16.99328 0 0 0-15.60064 8.17152 17.04448 17.04448 0 0 0 0 17.63328 16.99328 16.99328 0 0 0 15.60064 8.17152h424.03328a17.01376 17.01376 0 0 0 15.93344-16.98816 17.01376 17.01376 0 0 0-15.93344-16.98816z" fill="#FFFFFF" p-id="3000"></path></svg>